<mxfile host="app.diagrams.net" modified="2024-03-12T20:56:23.066Z" agent="Mozilla/5.0 (Windows NT 10.0; Win64; x64; rv:123.0) Gecko/20100101 Firefox/123.0" etag="bMPMqsh23dm8gnTDCao4" version="24.0.5" type="device">
  <diagram name="Página-1" id="W936nONh8QxvyN7CRFRm">
    <mxGraphModel dx="1194" dy="716" grid="1" gridSize="10" guides="1" tooltips="1" connect="1" arrows="1" fold="1" page="1" pageScale="1" pageWidth="827" pageHeight="1169" math="0" shadow="0">
      <root>
        <mxCell id="0" />
        <mxCell id="1" parent="0" />
        <mxCell id="77DpB2IWrsSkfqM6DX6a-13" value="" style="rounded=1;whiteSpace=wrap;html=1;strokeWidth=4;fillColor=#d5e8d4;strokeColor=#82b366;" vertex="1" parent="1">
          <mxGeometry x="970" y="280" width="120" height="60" as="geometry" />
        </mxCell>
        <mxCell id="77DpB2IWrsSkfqM6DX6a-1" value="" style="image;html=1;image=img/lib/clip_art/networking/Router_Icon_128x128.png" vertex="1" parent="1">
          <mxGeometry x="362" y="262.5" width="104" height="95" as="geometry" />
        </mxCell>
        <mxCell id="77DpB2IWrsSkfqM6DX6a-2" value="" style="rounded=1;whiteSpace=wrap;html=1;strokeWidth=4;fillColor=#f8cecc;strokeColor=#b85450;" vertex="1" parent="1">
          <mxGeometry x="30" y="280" width="120" height="60" as="geometry" />
        </mxCell>
        <mxCell id="77DpB2IWrsSkfqM6DX6a-3" value="" style="rounded=1;whiteSpace=wrap;html=1;strokeWidth=4;fillColor=#ffe6cc;strokeColor=#d79b00;" vertex="1" parent="1">
          <mxGeometry x="170" y="280" width="120" height="60" as="geometry" />
        </mxCell>
        <mxCell id="77DpB2IWrsSkfqM6DX6a-4" value="DATA" style="text;html=1;strokeColor=none;fillColor=none;align=center;verticalAlign=middle;whiteSpace=wrap;rounded=0;fontSize=16;fontStyle=1" vertex="1" parent="1">
          <mxGeometry x="5" y="295" width="170" height="30" as="geometry" />
        </mxCell>
        <mxCell id="77DpB2IWrsSkfqM6DX6a-5" value="IP" style="text;html=1;strokeColor=none;fillColor=none;align=center;verticalAlign=middle;whiteSpace=wrap;rounded=0;fontSize=16;fontStyle=1" vertex="1" parent="1">
          <mxGeometry x="145" y="295" width="170" height="30" as="geometry" />
        </mxCell>
        <mxCell id="77DpB2IWrsSkfqM6DX6a-6" value="ROUTER" style="text;html=1;strokeColor=none;fillColor=none;align=center;verticalAlign=middle;whiteSpace=wrap;rounded=0;fontSize=16;fontStyle=1" vertex="1" parent="1">
          <mxGeometry x="329" y="220" width="170" height="30" as="geometry" />
        </mxCell>
        <mxCell id="77DpB2IWrsSkfqM6DX6a-7" value="" style="rounded=1;whiteSpace=wrap;html=1;strokeWidth=4;fillColor=#f8cecc;strokeColor=#b85450;" vertex="1" parent="1">
          <mxGeometry x="515" y="280" width="120" height="60" as="geometry" />
        </mxCell>
        <mxCell id="77DpB2IWrsSkfqM6DX6a-8" value="DATA" style="text;html=1;strokeColor=none;fillColor=none;align=center;verticalAlign=middle;whiteSpace=wrap;rounded=0;fontSize=16;fontStyle=1" vertex="1" parent="1">
          <mxGeometry x="490" y="295" width="170" height="30" as="geometry" />
        </mxCell>
        <mxCell id="77DpB2IWrsSkfqM6DX6a-9" value="" style="rounded=1;whiteSpace=wrap;html=1;strokeWidth=4;fillColor=#ffe6cc;strokeColor=#d79b00;" vertex="1" parent="1">
          <mxGeometry x="670" y="280" width="120" height="60" as="geometry" />
        </mxCell>
        <mxCell id="77DpB2IWrsSkfqM6DX6a-10" value="IP" style="text;html=1;strokeColor=none;fillColor=none;align=center;verticalAlign=middle;whiteSpace=wrap;rounded=0;fontSize=16;fontStyle=1" vertex="1" parent="1">
          <mxGeometry x="945" y="295" width="170" height="30" as="geometry" />
        </mxCell>
        <mxCell id="77DpB2IWrsSkfqM6DX6a-11" value="" style="rounded=1;whiteSpace=wrap;html=1;strokeWidth=4;fillColor=#d5e8d4;strokeColor=#82b366;" vertex="1" parent="1">
          <mxGeometry x="820" y="280" width="120" height="60" as="geometry" />
        </mxCell>
        <mxCell id="77DpB2IWrsSkfqM6DX6a-12" value="GRE" style="text;html=1;strokeColor=none;fillColor=none;align=center;verticalAlign=middle;whiteSpace=wrap;rounded=0;fontSize=16;fontStyle=1" vertex="1" parent="1">
          <mxGeometry x="795" y="295" width="170" height="30" as="geometry" />
        </mxCell>
        <mxCell id="77DpB2IWrsSkfqM6DX6a-14" value="IP" style="text;html=1;strokeColor=none;fillColor=none;align=center;verticalAlign=middle;whiteSpace=wrap;rounded=0;fontSize=16;fontStyle=1" vertex="1" parent="1">
          <mxGeometry x="645" y="295" width="170" height="30" as="geometry" />
        </mxCell>
        <mxCell id="77DpB2IWrsSkfqM6DX6a-15" value="" style="shape=flexArrow;endArrow=classic;html=1;rounded=0;endWidth=20;endSize=14.33;width=22;strokeWidth=4;fillColor=#e1d5e7;strokeColor=#9673a6;" edge="1" parent="1">
          <mxGeometry width="50" height="50" relative="1" as="geometry">
            <mxPoint x="30" y="240" as="sourcePoint" />
            <mxPoint x="310" y="240" as="targetPoint" />
          </mxGeometry>
        </mxCell>
        <mxCell id="77DpB2IWrsSkfqM6DX6a-16" value="" style="shape=flexArrow;endArrow=classic;html=1;rounded=0;endWidth=20;endSize=14.33;width=22;strokeWidth=4;fillColor=#e1d5e7;strokeColor=#9673a6;" edge="1" parent="1">
          <mxGeometry width="50" height="50" relative="1" as="geometry">
            <mxPoint x="515" y="240" as="sourcePoint" />
            <mxPoint x="1090" y="240" as="targetPoint" />
          </mxGeometry>
        </mxCell>
        <mxCell id="77DpB2IWrsSkfqM6DX6a-17" value="INTERFACE DE SAÍDA" style="text;html=1;strokeColor=none;fillColor=none;align=center;verticalAlign=middle;whiteSpace=wrap;rounded=0;fontSize=16;fontStyle=1" vertex="1" parent="1">
          <mxGeometry x="680" y="170" width="230" height="30" as="geometry" />
        </mxCell>
        <mxCell id="77DpB2IWrsSkfqM6DX6a-18" value="INTERFACE DE ENTRADA" style="text;html=1;strokeColor=none;fillColor=none;align=center;verticalAlign=middle;whiteSpace=wrap;rounded=0;fontSize=16;fontStyle=1" vertex="1" parent="1">
          <mxGeometry x="30" y="170" width="230" height="30" as="geometry" />
        </mxCell>
        <mxCell id="77DpB2IWrsSkfqM6DX6a-20" value="" style="shape=curlyBracket;whiteSpace=wrap;html=1;rounded=1;labelPosition=left;verticalLabelPosition=middle;align=right;verticalAlign=middle;rotation=-90;strokeWidth=4;" vertex="1" parent="1">
          <mxGeometry x="145" y="245" width="20" height="250" as="geometry" />
        </mxCell>
        <mxCell id="77DpB2IWrsSkfqM6DX6a-21" value="" style="shape=curlyBracket;whiteSpace=wrap;html=1;rounded=1;labelPosition=left;verticalLabelPosition=middle;align=right;verticalAlign=middle;rotation=-90;strokeWidth=4;" vertex="1" parent="1">
          <mxGeometry x="787.5" y="82.5" width="20" height="575" as="geometry" />
        </mxCell>
        <mxCell id="77DpB2IWrsSkfqM6DX6a-22" value="PACOTE ORIGINAL" style="text;html=1;strokeColor=none;fillColor=none;align=center;verticalAlign=middle;whiteSpace=wrap;rounded=0;fontSize=16;fontStyle=1" vertex="1" parent="1">
          <mxGeometry x="40" y="390" width="230" height="30" as="geometry" />
        </mxCell>
        <mxCell id="77DpB2IWrsSkfqM6DX6a-23" value="PACOTE ENCAPSULADO GRE" style="text;html=1;strokeColor=none;fillColor=none;align=center;verticalAlign=middle;whiteSpace=wrap;rounded=0;fontSize=16;fontStyle=1" vertex="1" parent="1">
          <mxGeometry x="668.75" y="390" width="257.5" height="30" as="geometry" />
        </mxCell>
        <mxCell id="77DpB2IWrsSkfqM6DX6a-24" value="CABEÇALHO GRE ADICIONADO" style="text;html=1;strokeColor=none;fillColor=none;align=center;verticalAlign=middle;whiteSpace=wrap;rounded=0;fontSize=16;fontStyle=1" vertex="1" parent="1">
          <mxGeometry x="290" y="440" width="257.5" height="30" as="geometry" />
        </mxCell>
        <mxCell id="77DpB2IWrsSkfqM6DX6a-25" value="" style="shape=flexArrow;endArrow=classic;html=1;rounded=0;fillColor=#f8cecc;strokeColor=#b85450;strokeWidth=4;" edge="1" parent="1">
          <mxGeometry width="50" height="50" relative="1" as="geometry">
            <mxPoint x="414" y="440" as="sourcePoint" />
            <mxPoint x="414" y="361" as="targetPoint" />
          </mxGeometry>
        </mxCell>
      </root>
    </mxGraphModel>
  </diagram>
</mxfile>
